<svg width="16" height="8" viewBox="0 0 16 8" fill="none" xmlns="http://www.w3.org/2000/svg">
<path d="M14.651 0.214986C14.7273 0.146313 14.8171 0.0926256 14.9152 0.0569898C15.0134 0.021354 15.1179 0.00446727 15.2229 0.00729461C15.3279 0.010122 15.4312 0.0326077 15.5271 0.0734678C15.6229 0.114328 15.7094 0.172762 15.7815 0.245434C15.8537 0.318106 15.9101 0.403594 15.9475 0.497014C15.9849 0.590435 16.0026 0.689959 15.9997 0.789906C15.9967 0.889852 15.9731 0.988264 15.9302 1.07952C15.8873 1.17078 15.8259 1.25309 15.7495 1.32177L8.55377 7.79193C8.40532 7.92555 8.20878 8 8.00449 8C7.8002 8 7.60366 7.92555 7.45522 7.79193L0.258639 1.32177C0.180636 1.25355 0.117647 1.17125 0.0733337 1.07966C0.0290203 0.988064 0.00426483 0.889002 0.00050354 0.788224C-0.00325775 0.687446 0.0140533 0.58696 0.0514278 0.492605C0.0888014 0.398249 0.145495 0.311904 0.218216 0.238586C0.290937 0.165267 0.378236 0.106435 0.47504 0.0655086C0.571845 0.024582 0.676227 0.00237611 0.782122 0.000180467C0.888017 -0.00201518 0.993315 0.015843 1.0919 0.0527184C1.19048 0.0895938 1.28039 0.144751 1.35639 0.214986L8.00449 6.1919L14.651 0.214986Z" fill="#434343"/>
</svg>
