<svg width="28" height="12" viewBox="0 0 28 12" fill="none" xmlns="http://www.w3.org/2000/svg">
<path d="M3.82871 9.11369C3.36543 9.23803 3.06055 9.67405 3.06055 10.2089C3.06055 10.5138 3.1389 10.7164 3.31774 10.8816C3.49658 11.0469 3.67712 11.1065 3.96497 11.0929C4.2443 11.0792 4.44187 10.9924 4.63945 10.7931C4.7706 10.6619 4.88642 10.4388 4.92559 10.2412C4.95795 10.0726 4.95795 9.82053 4.92559 9.69109C4.84894 9.40154 4.63945 9.18523 4.36352 9.11199C4.23748 9.07963 3.95304 9.07963 3.82871 9.11369ZM4.30391 9.51054C4.46231 9.58719 4.54747 9.7507 4.54747 9.97382C4.54747 10.2821 4.39418 10.5546 4.15402 10.6722C4.04161 10.7284 3.81678 10.7301 3.71629 10.6756C3.50339 10.5631 3.40971 10.3043 3.47614 10.0181C3.58003 9.57186 3.95815 9.34022 4.30391 9.51054Z" fill="#646464"/>
<path d="M7.67805 9.11746C7.49921 9.17707 7.35273 9.30311 7.27949 9.45981C7.25053 9.52283 7.24372 9.57052 7.24372 9.69997C7.24372 9.84304 7.24883 9.87199 7.28971 9.94694C7.36465 10.0883 7.46173 10.1615 7.73255 10.2791C7.82282 10.3182 7.9165 10.3727 7.94205 10.3983C8.00677 10.4664 8.01529 10.5601 7.96419 10.6367C7.90287 10.7287 7.82793 10.7594 7.69167 10.7509C7.4958 10.7389 7.37828 10.6282 7.35954 10.4409C7.34762 10.3319 7.35443 10.3336 7.1262 10.3744L6.97461 10.4034L6.98483 10.5141C6.99845 10.6521 7.06999 10.8088 7.16026 10.8973C7.31185 11.0472 7.48558 11.1051 7.75299 11.0932C7.9693 11.083 8.08682 11.0404 8.21116 10.9263C8.3389 10.8088 8.40022 10.6725 8.39851 10.5005C8.39851 10.2331 8.28951 10.1019 7.92331 9.9282C7.74107 9.84133 7.68827 9.80897 7.66101 9.76469C7.53497 9.5586 7.8143 9.3474 8.06298 9.45981C8.13792 9.49387 8.19413 9.57052 8.21457 9.6625C8.22478 9.71019 8.2333 9.7187 8.26226 9.71189C8.28269 9.70678 8.36445 9.69315 8.4428 9.68123L8.58417 9.65909L8.57565 9.57052C8.55692 9.38998 8.43258 9.22817 8.24863 9.14471C8.16006 9.10383 8.12089 9.09702 7.95908 9.09191C7.8126 9.0885 7.75128 9.09361 7.67805 9.11746Z" fill="#646464"/>
<path d="M12.4108 9.11274C12.232 9.15873 12.1042 9.23538 11.9578 9.38186C11.75 9.58965 11.6563 9.80596 11.6342 10.1245C11.5916 10.7172 11.9663 11.1294 12.513 11.0902C12.6663 11.08 12.777 11.0408 12.886 10.9573L12.9678 10.896L12.9593 10.9778L12.9508 11.0612H13.1075C13.2539 11.0612 13.2624 11.0595 13.271 11.0221C13.305 10.879 13.4668 10.0853 13.4668 10.0649C13.4668 10.0427 13.4004 10.0393 12.9899 10.0393H12.513L12.5045 10.0768C12.5011 10.0989 12.4858 10.1688 12.4704 10.2318C12.4568 10.2965 12.4449 10.3544 12.4449 10.3646C12.4449 10.3731 12.5692 10.38 12.743 10.38H13.041L13.007 10.4481C12.9525 10.5537 12.8758 10.6303 12.7719 10.6814C12.6868 10.7223 12.6544 10.7291 12.5215 10.7291C12.3836 10.7291 12.3597 10.724 12.278 10.6797C12.1111 10.5877 12.0361 10.4328 12.0361 10.1824C12.0361 10.0069 12.0804 9.85706 12.1724 9.7191C12.3325 9.47894 12.6391 9.38356 12.8843 9.49768C12.9712 9.53855 13.0853 9.66459 13.1006 9.73443C13.1075 9.76338 13.1228 9.79063 13.1364 9.79574C13.1483 9.79915 13.2335 9.78212 13.3255 9.75486L13.4924 9.70547L13.4907 9.64586C13.489 9.56069 13.4038 9.40229 13.3118 9.30862C13.15 9.14851 12.9712 9.08549 12.6833 9.0872C12.5846 9.0872 12.4619 9.09912 12.4108 9.11274Z" fill="#646464"/>
<path d="M24.1008 9.11241C23.796 9.19417 23.566 9.38663 23.4264 9.67448C23.3446 9.8448 23.3105 10.0015 23.3105 10.211C23.3105 10.4852 23.3923 10.7032 23.5558 10.8684C23.7159 11.0268 23.9016 11.0967 24.169 11.0967C24.4585 11.0967 24.6408 11.0251 24.8281 10.8412C24.9371 10.7322 25.0564 10.5533 25.0444 10.5159C25.0376 10.4971 24.7072 10.3558 24.7004 10.3677C24.697 10.3711 24.6765 10.4086 24.651 10.4529C24.5539 10.6215 24.3853 10.722 24.1962 10.722C23.7755 10.722 23.5763 10.2655 23.7977 9.81244C24.0072 9.38322 24.5914 9.33042 24.76 9.72557C24.8077 9.83458 24.7941 9.83458 25.0393 9.75964L25.1807 9.71536L25.1654 9.64723C25.1262 9.4752 24.9695 9.26911 24.8128 9.18395C24.7668 9.1601 24.6851 9.12774 24.6306 9.11241C24.5062 9.08005 24.2201 9.08005 24.1008 9.11241Z" fill="#646464"/>
<path d="M1.1817 10.0627C1.07269 10.5788 0.982422 11.0165 0.982422 11.0335C0.982422 11.0591 1.00286 11.0625 1.17489 11.0625H1.36735L1.45081 10.6622L1.53257 10.262H1.90558C2.21897 10.262 2.27688 10.2654 2.27688 10.2875C2.27688 10.3012 2.24282 10.4749 2.20024 10.6725C2.15765 10.8717 2.12359 11.0404 2.12359 11.0489C2.12359 11.0557 2.21216 11.0625 2.31946 11.0625C2.50852 11.0625 2.51533 11.0608 2.52385 11.0233C2.53918 10.9586 2.92411 9.13614 2.92411 9.12762C2.92411 9.12251 2.83384 9.12251 2.72483 9.12422L2.52555 9.12933L2.44891 9.50404L2.37056 9.87875L1.99074 9.88386C1.63306 9.88727 1.61092 9.88556 1.61943 9.85831C1.63646 9.8004 1.76591 9.1702 1.76591 9.14636C1.76591 9.12592 1.73014 9.12081 1.57344 9.12081H1.38098L1.1817 10.0627Z" fill="#646464"/>
<path d="M5.47061 9.15837C5.4655 9.18051 5.40759 9.45474 5.33946 9.76813C5.24918 10.1939 5.21853 10.3728 5.21682 10.475C5.21512 10.7083 5.29688 10.8735 5.4655 10.9842C5.60346 11.0745 5.72439 11.1018 5.9407 11.0932C6.11102 11.0864 6.13487 11.0813 6.25069 11.0234C6.40738 10.9451 6.51639 10.8327 6.59474 10.6657C6.64073 10.5669 6.6799 10.4085 6.79743 9.85159C6.87918 9.47177 6.9439 9.15156 6.9439 9.14134C6.9439 9.12601 6.88599 9.1209 6.74974 9.1209C6.57771 9.1209 6.55386 9.12431 6.54535 9.14986C6.54194 9.16689 6.47892 9.46325 6.40738 9.80901C6.33585 10.1531 6.26602 10.4613 6.25239 10.4937C6.18767 10.6487 6.0446 10.7339 5.87598 10.7168C5.71246 10.6998 5.61538 10.5959 5.61538 10.4392C5.61538 10.3711 5.79933 9.43259 5.86576 9.15837C5.87427 9.1209 5.87257 9.1209 5.6767 9.1209C5.48593 9.1209 5.47912 9.1226 5.47061 9.15837Z" fill="#646464"/>
<path d="M9.06774 9.15828C9.06263 9.18042 8.97236 9.59942 8.87017 10.0917C8.76627 10.5839 8.6777 11.0029 8.67259 11.0233C8.66407 11.0625 8.66407 11.0625 8.86335 11.0625H9.06433L9.26532 10.1121C9.37432 9.5909 9.46459 9.15317 9.46459 9.14125C9.46459 9.12592 9.4135 9.12081 9.27043 9.12081C9.08307 9.12081 9.07626 9.12251 9.06774 9.15828Z" fill="#646464"/>
<path d="M9.74011 9.86635C9.65325 10.2768 9.56127 10.7146 9.53572 10.8389L9.48633 11.0654L9.6839 11.0603L9.88148 11.0552L10.0194 10.4131C10.0944 10.0605 10.1591 9.76756 10.1642 9.76245C10.1693 9.75905 10.292 10.0486 10.4384 10.4046L10.7041 11.0552L10.9034 11.0603C11.0124 11.062 11.101 11.062 11.101 11.0586C11.101 11.0518 11.4876 9.22253 11.5013 9.15951L11.5115 9.12033L11.3105 9.12544L11.1112 9.13055L10.9835 9.73861C10.9119 10.0741 10.8489 10.3484 10.8438 10.3484C10.8387 10.3484 10.7246 10.0724 10.5917 9.7352L10.3482 9.12204H10.1233H9.89851L9.74011 9.86635Z" fill="#646464"/>
<path d="M14.8575 10.0712C14.7485 10.5924 14.6582 11.0301 14.6582 11.0404C14.6582 11.0574 14.7076 11.0625 14.8507 11.0625H15.0431L15.1164 10.7167C15.1555 10.5277 15.193 10.3591 15.1964 10.342C15.2049 10.3165 15.2373 10.3131 15.5762 10.3131H15.9476L15.9765 10.1632C15.9935 10.0814 16.0089 10.0014 16.014 9.98435C16.0225 9.9571 15.9969 9.9554 15.6495 9.9554H15.2765L15.3157 9.76293C15.3378 9.65903 15.3599 9.55514 15.365 9.53299L15.3736 9.49552H15.7909C16.1707 9.49552 16.2064 9.49382 16.215 9.46486C16.2201 9.44954 16.2388 9.36437 16.2575 9.27751L16.2882 9.12081H15.6733H15.0585L14.8575 10.0712Z" fill="#646464"/>
<path d="M16.6796 9.14125C16.6693 9.17361 16.2793 11.025 16.2793 11.0455C16.2793 11.0557 16.3508 11.0625 16.4752 11.0625C16.6642 11.0625 16.671 11.0608 16.6796 11.0233C16.6864 10.9944 17.0321 9.36608 17.073 9.1668L17.0832 9.12081H16.8839C16.7426 9.12081 16.6847 9.12592 16.6796 9.14125Z" fill="#646464"/>
<path d="M17.5289 9.15099C17.5187 9.19017 17.127 11.0382 17.127 11.0535C17.127 11.0586 17.2155 11.0637 17.3228 11.0637C17.4301 11.0637 17.5187 11.0603 17.5187 11.0552C17.5187 11.0433 17.7946 9.74372 17.798 9.74031C17.7997 9.73861 17.9224 10.0367 18.0722 10.4012L18.3431 11.0654L18.5389 11.0603L18.7348 11.0552L18.9358 10.1184C19.0448 9.60235 19.1351 9.16802 19.1351 9.15099C19.1368 9.12544 19.1163 9.12204 18.9426 9.12204H18.7501L18.6973 9.3639C18.6684 9.49845 18.6088 9.78119 18.5645 9.99409L18.4827 10.379L18.2341 9.75564L17.9871 9.13055L17.7623 9.12544C17.5596 9.12204 17.5374 9.12374 17.5289 9.15099Z" fill="#646464"/>
<path d="M20.0272 9.32009C19.6236 10.0048 19.0309 11.0233 19.024 11.0404C19.0172 11.0574 19.0666 11.0625 19.2352 11.0625H19.455L19.5793 10.8411L19.7036 10.6197H20.0664H20.4292L20.4479 10.7457C20.4582 10.8155 20.4718 10.9143 20.4769 10.9671L20.4888 11.0625H20.6898C20.8721 11.0625 20.8925 11.0591 20.8925 11.0318C20.8908 11.0165 20.8244 10.5805 20.7409 10.0661L20.5927 9.12933L20.3679 9.12422L20.1448 9.11911L20.0272 9.32009ZM20.3321 9.93496C20.356 10.1104 20.3747 10.2552 20.373 10.2586C20.3713 10.2603 20.2657 10.2603 20.1397 10.2586L19.9097 10.2535L20.0903 9.92814C20.1891 9.7476 20.2742 9.60453 20.2793 9.60964C20.2844 9.61305 20.3083 9.76123 20.3321 9.93496Z" fill="#646464"/>
<path d="M21.3848 10.0712C21.2758 10.5924 21.1855 11.0301 21.1855 11.0404C21.1855 11.0574 21.2349 11.0625 21.378 11.0625H21.5688L21.7033 10.4187C21.7783 10.0661 21.843 9.77145 21.8481 9.76463C21.8549 9.75782 21.9793 10.044 22.1257 10.4033L22.3931 11.054L22.589 11.0591C22.7815 11.0642 22.7866 11.0625 22.7951 11.025C22.8087 10.9705 23.1954 9.13273 23.1954 9.12592C23.1954 9.12251 23.1085 9.12081 23.0012 9.12081C22.8292 9.12081 22.8053 9.12422 22.7968 9.14977C22.7917 9.1668 22.7338 9.44272 22.6657 9.76293C22.5975 10.0848 22.5379 10.3471 22.5328 10.3471C22.5277 10.3471 22.4119 10.0712 22.279 9.73398L22.0338 9.12081H21.8106H21.5858L21.3848 10.0712Z" fill="#646464"/>
<path d="M25.4337 10.0695C25.3229 10.5924 25.2344 11.0301 25.2344 11.0404C25.2344 11.0574 25.3672 11.0625 25.839 11.0625H26.4437L26.4522 11.025C26.476 10.9211 26.5118 10.7338 26.5118 10.7116C26.5118 10.6912 26.4471 10.6878 26.1047 10.6878H25.6994L25.7419 10.4749L25.7862 10.262L26.1609 10.2586L26.5356 10.2535L26.5663 10.1172C26.614 9.89919 26.6515 9.92133 26.2308 9.92133C26.0298 9.92133 25.8646 9.91793 25.8646 9.91282C25.8646 9.90771 25.8833 9.81573 25.9072 9.70672C25.931 9.59772 25.9497 9.50745 25.9497 9.50234C25.9497 9.49893 26.1354 9.49552 26.3636 9.49552H26.7775L26.8082 9.33882C26.8269 9.25366 26.8439 9.1685 26.849 9.15147C26.8559 9.12251 26.8269 9.12081 26.2444 9.12081H25.6346L25.4337 10.0695Z" fill="#646464"/>
<path d="M25.2115 0.690571C24.9782 0.734855 24.784 0.772326 24.784 0.774029C24.7806 0.774029 24.7602 0.87452 24.7499 0.935837C24.7465 0.954573 24.7363 1.00397 24.7261 1.04655C24.7159 1.08913 24.7039 1.14193 24.7005 1.16577C24.6954 1.18962 24.6852 1.24242 24.675 1.285C24.6648 1.32758 24.6528 1.38038 24.6494 1.40423C24.6443 1.42807 24.6341 1.48087 24.6239 1.52345C24.6137 1.56603 24.6018 1.61883 24.5983 1.64268C24.5932 1.66652 24.583 1.71933 24.5728 1.76191C24.5626 1.80449 24.5507 1.85729 24.5472 1.88113C24.5421 1.90498 24.5319 1.95778 24.5217 2.00036C24.5115 2.04294 24.4996 2.09574 24.4962 2.11959C24.491 2.14343 24.4808 2.19623 24.4706 2.23881C24.4604 2.28139 24.4485 2.33419 24.4451 2.35804C24.4399 2.38188 24.4297 2.43468 24.4195 2.47727C24.4093 2.51985 24.3974 2.57265 24.394 2.59649C24.3888 2.62034 24.3786 2.67314 24.3684 2.71572C24.3582 2.7583 24.3463 2.8111 24.3429 2.83495C24.3378 2.85879 24.3275 2.91159 24.3173 2.95417C24.3071 2.99675 24.2952 3.04955 24.2918 3.0734C24.2867 3.09724 24.2764 3.15004 24.2662 3.19262C24.256 3.23521 24.2441 3.28801 24.2407 3.31185C24.2356 3.3357 24.2253 3.3885 24.2151 3.43108C24.2049 3.47366 24.193 3.52646 24.1896 3.5503C24.1845 3.57415 24.1742 3.62695 24.164 3.66953C24.1538 3.71211 24.1419 3.76491 24.1385 3.78876C24.1334 3.8126 24.1231 3.8654 24.1129 3.90798C24.1027 3.95056 24.0908 4.00337 24.0874 4.02721C24.0823 4.05106 24.072 4.10386 24.0618 4.14644C24.0516 4.18902 24.0397 4.24182 24.0363 4.26566C24.0312 4.28951 24.0209 4.34231 24.0107 4.38489C24.0005 4.42747 23.9886 4.48027 23.9852 4.50412C23.9801 4.52796 23.9699 4.58076 23.9596 4.62334C23.9494 4.66592 23.9375 4.71872 23.9341 4.74257C23.929 4.76641 23.9188 4.81922 23.9085 4.8618C23.8983 4.90438 23.8864 4.95718 23.883 4.98102C23.8779 5.00487 23.8677 5.05767 23.8574 5.10025C23.8472 5.14283 23.8353 5.19563 23.8319 5.21948C23.8268 5.24332 23.8166 5.29612 23.8063 5.3387C23.7961 5.38128 23.7842 5.43408 23.7808 5.45793C23.7757 5.48177 23.7655 5.53457 23.7552 5.57716C23.745 5.61974 23.7331 5.67254 23.7297 5.69638C23.7246 5.72023 23.7144 5.77303 23.7041 5.81561C23.6939 5.85819 23.682 5.91099 23.6786 5.93483C23.6735 5.95868 23.6633 6.01148 23.653 6.05406C23.6428 6.09664 23.6309 6.14944 23.6275 6.17329C23.6224 6.19713 23.6122 6.24993 23.602 6.29081C23.5917 6.33169 23.5798 6.38449 23.5764 6.41004C23.573 6.43388 23.5611 6.48839 23.5509 6.52926C23.5406 6.57014 23.5287 6.62294 23.5253 6.64849C23.5219 6.67234 23.51 6.72684 23.4998 6.76772C23.4895 6.80859 23.4776 6.8614 23.4742 6.88694C23.4708 6.91079 23.4589 6.96529 23.4487 7.00617C23.4384 7.04705 23.4265 7.09985 23.4231 7.1254C23.4197 7.14924 23.4078 7.20375 23.3976 7.24462C23.3873 7.2855 23.3754 7.3383 23.372 7.36385C23.3686 7.38769 23.3567 7.4422 23.3465 7.48308C23.3362 7.52395 23.3243 7.57675 23.3209 7.6023C23.3175 7.62615 23.3056 7.68065 23.2954 7.72153C23.2852 7.76241 23.2732 7.81521 23.2698 7.84076C23.2664 7.8646 23.2545 7.9191 23.2443 7.95998C23.2341 8.00086 23.2221 8.05366 23.2187 8.07921C23.2153 8.10305 23.2034 8.15756 23.1932 8.19844C23.183 8.23931 23.171 8.29211 23.1676 8.31766C23.1625 8.34151 23.154 8.38749 23.1489 8.41815L23.1387 8.47266H23.6002C24.0278 8.47266 24.0618 8.47095 24.0635 8.442C24.0669 8.40112 24.0755 8.35684 24.0976 8.25975C24.1078 8.21206 24.1197 8.15926 24.1231 8.14053C24.1265 8.12179 24.1385 8.06729 24.1487 8.0213C24.1589 7.97361 24.1708 7.92081 24.1742 7.90207C24.1776 7.88334 24.1896 7.82883 24.1998 7.78285C24.21 7.73516 24.2219 7.68235 24.2253 7.66362C24.2287 7.64488 24.239 7.59549 24.2492 7.55291C24.2594 7.51033 24.2713 7.45753 24.2747 7.43368C24.2798 7.40984 24.2901 7.35704 24.3003 7.31446C24.3105 7.27187 24.3224 7.21907 24.3258 7.19523C24.3309 7.17138 24.3412 7.11858 24.3514 7.076C24.3616 7.03342 24.3735 6.98062 24.3769 6.95678C24.382 6.93293 24.3923 6.88013 24.4025 6.83755C24.4127 6.79497 24.4246 6.74217 24.428 6.71832C24.4331 6.69448 24.4434 6.64168 24.4536 6.6008C24.4638 6.55992 24.4757 6.50712 24.4791 6.48157C24.4825 6.45773 24.4944 6.40322 24.5047 6.36235C24.5149 6.32147 24.5268 6.26867 24.5302 6.24312C24.5336 6.21927 24.5455 6.16477 24.5558 6.12389C24.566 6.08302 24.5779 6.03022 24.5813 6.00467C24.5847 5.98082 24.5966 5.92632 24.6069 5.88544C24.6171 5.84456 24.629 5.79176 24.6324 5.76621C24.6358 5.74237 24.6477 5.68787 24.658 5.64699C24.6682 5.60611 24.6801 5.55331 24.6835 5.52776C24.6869 5.50392 24.6971 5.45282 24.7074 5.41535C24.7159 5.37788 24.7278 5.32848 24.7329 5.30464C24.7363 5.28079 24.7482 5.22799 24.7584 5.18541C24.767 5.14283 24.7789 5.09003 24.784 5.06618C24.7874 5.04234 24.7993 4.98954 24.8095 4.94696C24.8181 4.90438 24.83 4.85158 24.8351 4.82773C24.8385 4.80389 24.8504 4.75109 24.8606 4.7085C24.8692 4.66592 24.8811 4.61312 24.8862 4.58928C24.8896 4.56543 24.9015 4.51263 24.9117 4.47005C24.9271 4.40192 24.939 4.34401 24.9577 4.24011C24.9611 4.22138 24.9731 4.16688 24.9833 4.12089C24.9935 4.0732 25.0054 4.0204 25.0088 4.00166C25.0122 3.98293 25.0242 3.92842 25.0344 3.88244C25.0446 3.83474 25.0565 3.78194 25.0599 3.76321C25.0633 3.74447 25.0753 3.68997 25.0855 3.64398C25.0957 3.59629 25.1076 3.54349 25.111 3.52476C25.1144 3.50602 25.1263 3.45152 25.1366 3.40553C25.1468 3.35784 25.1587 3.30504 25.1621 3.2863C25.1655 3.26757 25.1757 3.21817 25.186 3.17559C25.1962 3.13301 25.2081 3.08021 25.2115 3.05637C25.2166 3.03252 25.2268 2.97972 25.2371 2.93714C25.2473 2.89456 25.2592 2.84176 25.2626 2.81791C25.2677 2.79407 25.2779 2.74127 25.2882 2.69869C25.2984 2.65611 25.3103 2.6033 25.3137 2.57946C25.3188 2.55561 25.329 2.50281 25.3393 2.46023C25.3495 2.41765 25.3614 2.36485 25.3648 2.34101C25.3699 2.31716 25.3801 2.26436 25.3903 2.22348C25.4006 2.18261 25.4125 2.12981 25.4159 2.10426C25.4193 2.08041 25.4312 2.02591 25.4414 1.98503C25.4517 1.94415 25.4636 1.89135 25.467 1.8658C25.4704 1.84196 25.4823 1.78746 25.4925 1.74658C25.5028 1.7057 25.5147 1.6529 25.5181 1.62735C25.5215 1.60351 25.5334 1.549 25.5436 1.50812C25.5539 1.46725 25.5658 1.41445 25.5692 1.3889C25.5726 1.36505 25.5845 1.31055 25.5947 1.26967C25.605 1.22879 25.6169 1.17599 25.6203 1.15044C25.6237 1.1266 25.6339 1.0755 25.6441 1.03803C25.6526 1.00056 25.6646 0.951166 25.6697 0.92732C25.6731 0.903475 25.685 0.848972 25.6952 0.802984C25.7054 0.7587 25.7191 0.695681 25.7242 0.663319C25.7327 0.607112 25.731 0.603706 25.685 0.605409C25.6595 0.607112 25.4466 0.644584 25.2115 0.690571Z" fill="#159640"/>
<path d="M24.2787 0.866946C24.2718 0.873759 24.2054 0.887385 24.1015 0.902714C24.0743 0.907824 24.0317 0.914637 24.0078 0.919746C23.8971 0.943592 23.8767 0.946998 23.829 0.953811C23.8018 0.95892 23.7592 0.965734 23.7353 0.970843C23.7115 0.975953 23.674 0.984469 23.6502 0.989579C23.6263 0.994689 23.5923 0.999798 23.5735 1.0032C23.5548 1.00661 23.5037 1.01513 23.4594 1.02194C23.4015 1.03046 23.3794 1.04238 23.3794 1.06282C23.3794 1.07815 23.3708 1.12413 23.3606 1.16672C23.3504 1.2093 23.3385 1.2621 23.3351 1.28594C23.33 1.30979 23.3197 1.36259 23.3095 1.40347C23.2993 1.44434 23.2874 1.49714 23.284 1.52269C23.2806 1.54654 23.2703 1.59763 23.2601 1.63511C23.2516 1.67258 23.2397 1.72197 23.2346 1.74582C23.2295 1.76966 23.2141 1.84971 23.1988 1.92465C23.1818 1.9996 23.1664 2.07624 23.163 2.09498C23.1596 2.11371 23.1494 2.16311 23.1392 2.20569C23.129 2.24827 23.1171 2.30107 23.1136 2.32492C23.1085 2.34876 23.0983 2.40156 23.0881 2.44244C23.0779 2.48332 23.066 2.53612 23.0626 2.56167C23.0591 2.58551 23.0489 2.63661 23.0387 2.67408C23.0302 2.71155 23.0183 2.76094 23.0132 2.78479C23.0098 2.80863 22.9978 2.86143 22.9876 2.90402C22.9723 2.97215 22.9604 3.03006 22.9416 3.13395C22.9382 3.15269 22.9263 3.20549 22.9161 3.25318C22.9059 3.29917 22.8939 3.35367 22.8905 3.37241C22.8871 3.39114 22.8769 3.44054 22.8667 3.48312C22.8565 3.5257 22.8445 3.5785 22.8411 3.60234C22.836 3.62619 22.8258 3.67899 22.8156 3.71987C22.8054 3.76074 22.7934 3.81354 22.79 3.83909C22.7866 3.86294 22.7764 3.91403 22.7662 3.95151C22.7577 3.98898 22.7457 4.03837 22.7406 4.06222C22.7355 4.08606 22.7202 4.16611 22.7049 4.24106C22.6878 4.316 22.6725 4.39264 22.6691 4.41138C22.6657 4.43012 22.6555 4.47951 22.6453 4.52209C22.635 4.56467 22.6231 4.61747 22.6197 4.64132C22.6146 4.66516 22.6044 4.71796 22.5942 4.75884C22.5839 4.79972 22.572 4.85252 22.5686 4.87807C22.5652 4.90191 22.555 4.95301 22.5448 4.99048C22.5363 5.02795 22.5243 5.07735 22.5192 5.10119C22.5158 5.12504 22.5039 5.17784 22.4937 5.22042C22.4783 5.28855 22.4664 5.34646 22.4477 5.45035C22.4443 5.46909 22.4324 5.52189 22.4221 5.56958C22.4119 5.61557 22.4 5.67007 22.3966 5.68881C22.3932 5.70754 22.383 5.75694 22.3727 5.79781C22.3625 5.83869 22.3506 5.89149 22.3472 5.91704C22.3438 5.94089 22.3319 5.99539 22.3216 6.03627C22.3114 6.07715 22.2995 6.12995 22.2961 6.15549C22.2927 6.17934 22.2825 6.23044 22.2722 6.26791C22.2569 6.32922 22.2467 6.37691 22.2263 6.48933C22.2229 6.50806 22.2109 6.56086 22.2007 6.60855C22.1905 6.65454 22.1786 6.70905 22.1752 6.72778C22.1718 6.74652 22.1615 6.79591 22.1513 6.83849C22.1411 6.88107 22.1292 6.93387 22.1258 6.95772C22.1207 6.98156 22.1104 7.03436 22.1002 7.07524C22.09 7.11612 22.0781 7.16892 22.0747 7.19447C22.0713 7.21831 22.061 7.26941 22.0508 7.30688C22.0423 7.34435 22.0304 7.39375 22.0253 7.41759C22.0202 7.44144 22.0048 7.52149 21.9895 7.59643C21.9725 7.67137 21.9572 7.74802 21.9537 7.76676C21.9503 7.78549 21.9401 7.83488 21.9299 7.87747C21.9197 7.92005 21.9078 7.97285 21.9043 7.99669C21.8992 8.02054 21.889 8.07334 21.8788 8.11422C21.8686 8.15509 21.8567 8.20789 21.8533 8.23344C21.8498 8.25729 21.8379 8.30838 21.8294 8.34586C21.7936 8.48552 21.7545 8.4753 22.2654 8.47019L22.7202 8.46508L22.7338 8.41398C22.7406 8.38503 22.7509 8.33904 22.756 8.31179C22.7594 8.28284 22.7713 8.22663 22.7815 8.18405C22.7917 8.14147 22.8037 8.08867 22.8071 8.06482C22.8122 8.04098 22.8224 7.98818 22.8326 7.9456C22.8428 7.90301 22.8548 7.85021 22.8582 7.82637C22.8633 7.80252 22.8735 7.74972 22.8837 7.70714C22.8939 7.66456 22.9059 7.61176 22.911 7.58792C22.9144 7.56407 22.9263 7.50616 22.9365 7.46017C22.9467 7.41248 22.9587 7.35968 22.9621 7.34095C22.9655 7.32221 22.9774 7.26771 22.9876 7.22172C22.9978 7.17403 23.0098 7.12123 23.0132 7.10249C23.0166 7.08376 23.0285 7.02925 23.0387 6.98327C23.0489 6.93558 23.0608 6.88278 23.0643 6.86404C23.0677 6.8453 23.0796 6.7908 23.0898 6.74481C23.1 6.69712 23.1102 6.64773 23.1119 6.6341C23.1136 6.62048 23.1205 6.59323 23.1273 6.57449C23.1324 6.55575 23.1409 6.52169 23.146 6.49784C23.1494 6.474 23.1613 6.4212 23.1716 6.37862C23.1801 6.33604 23.192 6.28324 23.1971 6.25939C23.2005 6.23555 23.2124 6.18275 23.2227 6.14016C23.2312 6.09758 23.2431 6.04478 23.2482 6.02094C23.2516 5.99709 23.2635 5.94429 23.2738 5.90171C23.2823 5.85913 23.2942 5.80633 23.2993 5.78249C23.3027 5.75864 23.3146 5.70584 23.3248 5.66326C23.3334 5.62068 23.3453 5.56788 23.3504 5.54403C23.3538 5.52019 23.3657 5.46398 23.3759 5.41799C23.3879 5.37201 23.3998 5.3141 23.4032 5.29025C23.4066 5.2664 23.4185 5.2119 23.4287 5.17102C23.439 5.13015 23.4509 5.07735 23.4543 5.0518C23.4577 5.02795 23.4696 4.97345 23.4798 4.93257C23.4901 4.89169 23.502 4.83889 23.5054 4.81334C23.5088 4.7895 23.5207 4.73499 23.5309 4.69412C23.5412 4.65324 23.5531 4.60044 23.5565 4.57489C23.5599 4.55105 23.5718 4.49654 23.582 4.45396C23.5923 4.41138 23.6042 4.35858 23.6076 4.33473C23.6127 4.31089 23.6229 4.25809 23.6331 4.21551C23.6434 4.17293 23.6553 4.12013 23.6587 4.09628C23.6638 4.07244 23.674 4.01964 23.6842 3.97705C23.6945 3.93447 23.7064 3.88167 23.7098 3.85783C23.7149 3.83398 23.7251 3.78118 23.7353 3.7386C23.7455 3.69602 23.7575 3.64322 23.7609 3.61938C23.766 3.59553 23.7762 3.54273 23.7864 3.50015C23.7966 3.45757 23.8086 3.40477 23.8137 3.38092C23.8171 3.35708 23.829 3.29917 23.8392 3.25318C23.8494 3.20549 23.8614 3.15269 23.8648 3.13395C23.8682 3.11522 23.8801 3.06071 23.8903 3.01473C23.9005 2.96704 23.9125 2.91424 23.9159 2.8955C23.9193 2.87676 23.9312 2.82226 23.9414 2.77627C23.9516 2.72858 23.9636 2.67578 23.967 2.65705C23.9704 2.63831 23.9823 2.58381 23.9925 2.53782C24.0027 2.49013 24.013 2.44074 24.0164 2.42711C24.0181 2.41348 24.0249 2.38283 24.03 2.35898C24.0624 2.21932 24.093 2.08987 24.0998 2.0524C24.1032 2.02855 24.1152 1.97575 24.1254 1.93317C24.1339 1.89059 24.1458 1.83779 24.1509 1.81394C24.1543 1.7901 24.1662 1.7373 24.1765 1.69472C24.185 1.65214 24.1969 1.59934 24.202 1.57549C24.2054 1.55165 24.2173 1.49885 24.2276 1.45627C24.2361 1.41368 24.248 1.36088 24.2531 1.33704C24.2565 1.31319 24.2684 1.25699 24.2787 1.211C24.2906 1.16501 24.3025 1.1071 24.3059 1.08326C24.3093 1.05941 24.3212 1.00831 24.3298 0.970843C24.3553 0.875462 24.3536 0.860133 24.3178 0.860133C24.3008 0.860133 24.2821 0.86354 24.2787 0.866946Z" fill="#159640"/>
<path d="M16.852 2.25819C16.7668 2.27693 16.7004 2.29055 16.6408 2.29907C16.6135 2.30418 16.5709 2.31099 16.5471 2.3161C16.4364 2.33994 16.4159 2.34335 16.3682 2.35016C16.341 2.35527 16.2984 2.36209 16.2746 2.3672C16.2507 2.37231 16.2132 2.38082 16.1894 2.38593C16.1655 2.39104 16.1196 2.39786 16.0872 2.40296C16.0242 2.41148 16.014 2.41659 16.0071 2.44895C16.0054 2.46087 15.9952 2.50346 15.985 2.54604C15.9748 2.58862 15.9629 2.64142 15.9595 2.66526C15.9543 2.68911 15.9441 2.74191 15.9339 2.78279C15.9237 2.82366 15.9118 2.87646 15.9084 2.90201C15.905 2.92586 15.893 2.98036 15.8828 3.02124C15.8726 3.06212 15.8607 3.11492 15.8573 3.14047C15.8539 3.16431 15.8436 3.21541 15.8334 3.25288C15.8249 3.29035 15.813 3.33974 15.8079 3.36359C15.8045 3.38744 15.7925 3.44024 15.7823 3.48282C15.767 3.55095 15.7551 3.60886 15.7363 3.71275C15.7329 3.73149 15.721 3.78429 15.7108 3.83198C15.7006 3.87797 15.6886 3.93247 15.6852 3.95121C15.6818 3.96994 15.6699 4.02274 15.6597 4.07043C15.6495 4.11642 15.6375 4.17092 15.6341 4.18966C15.6307 4.2084 15.6205 4.25779 15.6103 4.30037C15.6001 4.34295 15.5882 4.39575 15.5847 4.4196C15.5796 4.44344 15.5694 4.49624 15.5592 4.53712C15.549 4.578 15.5371 4.6308 15.5336 4.65635C15.5302 4.68019 15.5183 4.73469 15.5081 4.77557C15.4979 4.81645 15.486 4.86925 15.4825 4.8948C15.4791 4.91864 15.4672 4.97315 15.457 5.01403C15.4468 5.0549 15.4349 5.1077 15.4315 5.13325C15.428 5.1571 15.4161 5.2116 15.4059 5.25248C15.3957 5.29336 15.3838 5.34616 15.3804 5.37171C15.3769 5.39555 15.365 5.45005 15.3548 5.49093C15.3446 5.53181 15.3327 5.58461 15.3293 5.61016C15.3259 5.634 15.3139 5.68851 15.3037 5.72938C15.2935 5.77026 15.2816 5.82306 15.2782 5.84861C15.2748 5.87246 15.2628 5.92696 15.2526 5.96954C15.2424 6.01212 15.2305 6.06492 15.2271 6.08877C15.222 6.11261 15.2117 6.16541 15.2015 6.20799C15.1913 6.25058 15.1794 6.30338 15.176 6.32722C15.1709 6.35107 15.1606 6.40387 15.1504 6.44645C15.1402 6.48903 15.1283 6.54183 15.1249 6.56567C15.1198 6.58952 15.1095 6.64232 15.0993 6.6849C15.0891 6.72748 15.0772 6.78028 15.0738 6.80413C15.0687 6.82797 15.0584 6.88077 15.0482 6.92335C15.038 6.96593 15.0261 7.01873 15.0227 7.04258C15.0176 7.06643 15.0073 7.11923 14.9971 7.16181C14.9869 7.20439 14.975 7.25719 14.9716 7.28103C14.9665 7.30488 14.9562 7.35768 14.946 7.40026C14.9358 7.44284 14.9239 7.49564 14.9188 7.51949C14.9154 7.54333 14.9034 7.59954 14.8932 7.64723C14.883 7.69322 14.8711 7.74772 14.8677 7.76646C14.8643 7.78519 14.8524 7.83799 14.8421 7.88568C14.8319 7.93167 14.82 7.98617 14.8166 8.00491C14.8132 8.02364 14.8013 8.07644 14.791 8.12414C14.7808 8.17012 14.7689 8.22463 14.7655 8.24336C14.7621 8.2621 14.7519 8.31149 14.7433 8.35407C14.7331 8.39665 14.7263 8.44094 14.7246 8.45286C14.7246 8.46989 14.82 8.4733 15.1726 8.46989C15.5558 8.46478 15.6188 8.46138 15.6205 8.43923C15.6205 8.42561 15.6256 8.39836 15.6324 8.37962C15.6375 8.36088 15.6478 8.32171 15.6529 8.29446C15.658 8.2655 15.6716 8.19737 15.6852 8.14117C15.6989 8.08496 15.7057 8.03216 15.7006 8.02194C15.6955 8.01342 15.7142 8.03216 15.7431 8.06452C15.7721 8.09688 15.7959 8.13265 15.7976 8.14457C15.7976 8.17012 15.985 8.33704 16.014 8.33704C16.0259 8.33704 16.0361 8.34385 16.0361 8.35067C16.0361 8.36599 16.2098 8.45797 16.2473 8.46308C16.2575 8.46478 16.2763 8.4716 16.2882 8.47841C16.2984 8.48692 16.3086 8.48692 16.3086 8.48011C16.3086 8.475 16.3188 8.4767 16.3308 8.48692C16.3427 8.49714 16.3836 8.51247 16.421 8.51929C16.53 8.53802 16.9184 8.54143 17.0223 8.52269C17.2488 8.48011 17.4821 8.38132 17.6797 8.24166C17.7972 8.1599 18.08 7.87035 18.08 7.83288C18.08 7.81926 18.0885 7.80904 18.097 7.80904C18.1072 7.80904 18.114 7.79711 18.114 7.78349C18.114 7.76986 18.1209 7.75794 18.1294 7.75794C18.1379 7.75794 18.1839 7.68129 18.2333 7.58762C18.281 7.49394 18.315 7.41729 18.3099 7.41729C18.3048 7.41729 18.3116 7.40026 18.327 7.37812C18.3406 7.35768 18.3542 7.32361 18.3576 7.30658C18.3593 7.28785 18.3661 7.264 18.3729 7.25548C18.3883 7.22823 18.4547 6.95401 18.4649 6.87226C18.5296 6.3187 18.4922 5.98998 18.327 5.66296C18.2537 5.51989 18.2333 5.49264 18.0834 5.34445C17.8773 5.14007 17.5877 5.02254 17.259 5.01232C17.0853 5.00721 16.8826 5.02425 16.8349 5.04979C16.8179 5.06001 16.7889 5.06683 16.7685 5.06683C16.7481 5.06683 16.697 5.08386 16.6527 5.1043C16.6084 5.12474 16.5675 5.14007 16.5607 5.13836C16.5522 5.13666 16.5471 5.14177 16.5471 5.15199C16.5471 5.1605 16.5386 5.16902 16.53 5.16902C16.5147 5.16902 16.3819 5.24907 16.3597 5.27121C16.3546 5.27632 16.3359 5.29165 16.3188 5.30528C16.2865 5.32912 16.2865 5.32742 16.2984 5.27121C16.3052 5.23885 16.3154 5.19627 16.3188 5.17754C16.3222 5.1588 16.3325 5.10941 16.3427 5.06683C16.3529 5.02425 16.3648 4.97144 16.3682 4.9476C16.3733 4.92375 16.3836 4.87095 16.3938 4.83008C16.404 4.7892 16.4159 4.7364 16.4193 4.71085C16.4227 4.687 16.433 4.63591 16.4432 4.59844C16.4585 4.53542 16.4721 4.46729 16.4892 4.37702C16.4926 4.35828 16.5028 4.30889 16.513 4.2663C16.5232 4.22372 16.5351 4.17092 16.5386 4.14708C16.5437 4.12323 16.5539 4.07043 16.5641 4.02956C16.5743 3.98868 16.5862 3.93588 16.5897 3.91033C16.5931 3.88648 16.6033 3.83539 16.6135 3.79791C16.6288 3.7366 16.639 3.68891 16.6595 3.57649C16.6629 3.55776 16.6748 3.50326 16.685 3.45727C16.6953 3.40958 16.7072 3.35678 16.7106 3.33804C16.714 3.31931 16.7242 3.26991 16.7344 3.22903C16.7446 3.18816 16.7566 3.13536 16.76 3.10981C16.7634 3.08596 16.7736 3.03487 16.7838 2.99739C16.7923 2.95992 16.8043 2.91053 16.8094 2.88668C16.8145 2.86284 16.8298 2.78279 16.8451 2.70784C16.8622 2.6329 16.8775 2.55626 16.8809 2.53752C16.8843 2.51878 16.8945 2.46939 16.9048 2.42681C16.932 2.3178 16.9405 2.23945 16.9252 2.24116C16.9184 2.24286 16.886 2.24967 16.852 2.25819ZM16.9814 5.83669C17.3731 5.88268 17.5946 6.20288 17.5605 6.66616C17.5554 6.7377 17.5486 6.80753 17.5469 6.82116C17.5435 6.83479 17.5332 6.87737 17.5264 6.91484C17.5077 7 17.5094 6.99319 17.4941 7.03406C17.322 7.48202 16.961 7.75283 16.5828 7.71706C16.433 7.70344 16.433 7.70344 16.3342 7.65575C16.1383 7.56207 15.9986 7.34746 15.9697 7.09879C15.9458 6.90121 15.9833 6.581 16.0463 6.46178C16.0599 6.43452 16.0668 6.41238 16.0616 6.41238C16.0582 6.41238 16.077 6.37491 16.1042 6.32892C16.1332 6.28464 16.1553 6.24206 16.1553 6.23695C16.1553 6.21481 16.2694 6.09047 16.3785 5.99339C16.4347 5.94399 16.5743 5.87586 16.6918 5.8401C16.7617 5.81795 16.8213 5.81795 16.9814 5.83669Z" fill="#159640"/>
<path d="M11.1527 3.32083C11.1135 3.33275 11.0471 3.36171 11.0062 3.38555C10.9245 3.43324 10.7899 3.57461 10.7899 3.61208C10.7899 3.62571 10.7831 3.63593 10.7729 3.63593C10.7644 3.63593 10.7576 3.64104 10.7593 3.64785C10.761 3.65636 10.7525 3.68021 10.7388 3.70406C10.7014 3.77048 10.7014 4.00042 10.7405 4.10432C10.7746 4.1997 10.9109 4.33596 11.0113 4.37854C11.1272 4.42793 11.2975 4.42282 11.461 4.36321C11.5325 4.33766 11.7029 4.19118 11.7489 4.11624C11.771 4.08217 11.7999 4.01915 11.8136 3.97657C11.8442 3.87949 11.8425 3.6751 11.8119 3.61889C11.7982 3.59505 11.7897 3.5712 11.7914 3.56439C11.7982 3.53714 11.6347 3.38044 11.5615 3.34638C11.4627 3.30039 11.26 3.28676 11.1527 3.32083Z" fill="#159640"/>
<path d="M10.3974 3.46683C10.2901 3.49067 10.239 3.50089 10.1862 3.5077C10.1589 3.51281 10.1164 3.51963 10.0925 3.52474C9.98181 3.54858 9.96137 3.55199 9.91368 3.5588C9.86599 3.56561 9.83362 3.57243 9.73484 3.59457C9.68715 3.60479 9.63605 3.6133 9.59858 3.61671C9.58325 3.61671 9.57133 3.63204 9.56962 3.64737C9.56622 3.68314 9.55429 3.73934 9.53215 3.83132C9.51682 3.89434 9.50149 3.96587 9.48616 4.05274C9.48276 4.07147 9.47254 4.11746 9.46402 4.15493C9.44869 4.21795 9.43336 4.28949 9.41803 4.37635C9.41463 4.39509 9.40441 4.44108 9.39589 4.47855C9.38738 4.51602 9.37375 4.57393 9.36694 4.60629C9.36183 4.63865 9.35331 4.68123 9.3499 4.69997C9.3465 4.7187 9.33117 4.79194 9.31584 4.86178C9.30051 4.93161 9.28518 5.00485 9.28178 5.02358C9.27837 5.04232 9.26304 5.11045 9.24941 5.17688C9.23408 5.2416 9.22046 5.31824 9.21705 5.34379C9.20854 5.41192 9.1898 5.42214 9.15744 5.37445C8.95816 5.0849 8.49318 4.94694 7.97199 5.02358C7.82381 5.04573 7.5036 5.15644 7.5036 5.18709C7.5036 5.19561 7.49338 5.20242 7.48316 5.20242C7.46272 5.20242 7.32135 5.2927 7.23108 5.36423C7.07438 5.48686 6.86999 5.74746 6.75758 5.96377C6.68434 6.10684 6.59407 6.35722 6.57533 6.47133C6.57022 6.49859 6.5583 6.56501 6.54808 6.61611C6.52424 6.72171 6.51742 7.17647 6.53616 7.30592C6.5566 7.44048 6.57022 7.50861 6.58385 7.52734C6.59066 7.53586 6.60599 7.58184 6.61791 7.62954C6.64346 7.73173 6.75247 7.94804 6.81719 8.0298C6.9262 8.16265 7.11526 8.33127 7.17658 8.3466C7.19701 8.35341 7.21405 8.36363 7.21405 8.37044C7.21405 8.38748 7.42695 8.47264 7.47124 8.47264C7.48997 8.47264 7.52233 8.48115 7.54277 8.49308C7.56321 8.5033 7.67051 8.51522 7.78463 8.51862C7.95495 8.52203 8.01286 8.51692 8.13379 8.48456C8.3484 8.42665 8.5034 8.33297 8.65839 8.16776L8.73163 8.08941L8.71971 8.20353C8.7146 8.26655 8.7146 8.35341 8.71971 8.39599L8.73163 8.47264H9.14892H9.56451L9.56792 8.32275C9.56792 8.241 9.57133 8.16605 9.57303 8.15754C9.57473 8.14732 9.58154 8.09111 9.58836 8.0298C9.60709 7.87139 9.62072 7.79475 9.64967 7.67382C9.65989 7.63294 9.67182 7.58014 9.67522 7.55459C9.67863 7.53075 9.69566 7.4524 9.71099 7.38257C9.72632 7.31273 9.74165 7.23949 9.74506 7.22076C9.74846 7.20202 9.75868 7.15604 9.7672 7.11856C9.78253 7.05554 9.79786 6.98401 9.81318 6.89714C9.81659 6.87841 9.82681 6.82901 9.83703 6.78814C9.84725 6.74726 9.85917 6.69446 9.86258 6.66891C9.86599 6.64506 9.88302 6.56672 9.89835 6.49688C9.91368 6.42705 9.92901 6.35381 9.93241 6.33508C9.93582 6.31634 9.94604 6.27035 9.95455 6.23288C9.96307 6.19541 9.97499 6.14602 9.9801 6.12217C9.98351 6.09833 10.0005 6.02168 10.0159 5.95185C10.0312 5.88201 10.0465 5.80537 10.0499 5.78152C10.055 5.75768 10.0653 5.70828 10.0738 5.67081C10.0891 5.60779 10.1044 5.53626 10.1198 5.44939C10.1232 5.43066 10.1334 5.38126 10.1436 5.34039C10.1538 5.29951 10.1658 5.24671 10.1692 5.22116C10.1726 5.19731 10.1896 5.11896 10.2049 5.04913C10.2203 4.9793 10.2356 4.90606 10.239 4.88732C10.2424 4.86859 10.2526 4.8226 10.2611 4.78513C10.2765 4.72211 10.2918 4.65058 10.3071 4.56371C10.3105 4.54497 10.3207 4.49558 10.331 4.4547C10.3412 4.41383 10.3531 4.36102 10.3565 4.33548C10.3599 4.31163 10.3701 4.26053 10.3804 4.22306C10.3957 4.16004 10.4093 4.09191 10.4264 4.00164C10.4298 3.98291 10.44 3.93351 10.4502 3.89263C10.4604 3.85176 10.4723 3.79896 10.4757 3.77341C10.4928 3.67462 10.5354 3.47875 10.5439 3.46512C10.5541 3.44809 10.4826 3.44809 10.3974 3.46683ZM8.60218 5.88372C8.75377 5.95355 8.87641 6.10855 8.9275 6.29931C8.94964 6.38277 8.94964 6.76259 8.9275 6.8716C8.90366 6.98401 8.87981 7.06747 8.85597 7.11175C8.84234 7.139 8.83553 7.16115 8.84064 7.16115C8.84404 7.16115 8.82531 7.19862 8.79806 7.2446C8.7691 7.28889 8.74696 7.33147 8.74696 7.33828C8.74696 7.35361 8.73674 7.36383 8.6107 7.49498C8.53576 7.56992 8.39269 7.66871 8.33818 7.68063C8.33307 7.68234 8.28368 7.69255 8.22747 7.70448C7.96858 7.76239 7.68414 7.66019 7.56832 7.46943C7.54788 7.43537 7.52233 7.403 7.51382 7.39619C7.5036 7.38938 7.50189 7.38257 7.50871 7.38257C7.51552 7.38257 7.51211 7.36553 7.50019 7.34339C7.48827 7.32295 7.47805 7.30251 7.47635 7.2974C7.47635 7.29229 7.46783 7.27356 7.45931 7.25482C7.44228 7.21735 7.43887 6.80517 7.45591 6.72682C7.48656 6.57694 7.507 6.5054 7.53085 6.46112C7.54447 6.43386 7.55129 6.41172 7.54788 6.41172C7.54277 6.41172 7.56151 6.37255 7.58876 6.32656C7.61771 6.27887 7.63986 6.23458 7.63986 6.22777C7.63986 6.19541 7.84084 5.99613 7.92941 5.94163C7.98391 5.90756 8.03501 5.88031 8.04352 5.87861C8.05034 5.87861 8.08781 5.86669 8.12528 5.85476C8.23088 5.8207 8.49658 5.83603 8.60218 5.88372Z" fill="#159640"/>
<path d="M3.22858 3.67166C3.09232 3.69892 2.96288 3.72446 2.93903 3.72957C2.91519 3.73468 2.87431 3.7432 2.84535 3.74661C2.8181 3.75172 2.77552 3.75853 2.75167 3.76364C2.72783 3.76875 2.69036 3.77726 2.66651 3.78237C2.64267 3.78748 2.59668 3.7943 2.56432 3.79941C2.49619 3.80963 2.49619 3.80963 2.48767 3.86072C2.48256 3.88116 2.46723 3.95781 2.45191 4.02764C2.43658 4.09747 2.42125 4.17071 2.41784 4.18945C2.41443 4.20818 2.40421 4.25417 2.3957 4.29164C2.38037 4.35466 2.36504 4.4262 2.34971 4.51306C2.3463 4.5318 2.33609 4.58119 2.32587 4.62207C2.31565 4.66295 2.30372 4.71575 2.30032 4.7413C2.29691 4.76514 2.27988 4.84349 2.26455 4.91332C2.24922 4.98316 2.23389 5.0564 2.23048 5.07513C2.22708 5.09387 2.21686 5.13985 2.20834 5.17733C2.19301 5.24034 2.17768 5.31188 2.16235 5.39875C2.15895 5.41748 2.14873 5.46688 2.13851 5.50946C2.12829 5.55204 2.11637 5.60484 2.11296 5.62868C2.10785 5.65253 2.09763 5.70192 2.08912 5.73939C2.07379 5.80241 2.05846 5.87395 2.04313 5.96081C2.03972 5.97955 2.0295 6.02554 2.02099 6.06301C2.01247 6.10048 2.00055 6.14987 1.99544 6.17372C1.99203 6.19756 1.975 6.27421 1.95967 6.34404C1.94434 6.41387 1.92901 6.49052 1.92561 6.51437C1.9205 6.53821 1.91028 6.5876 1.90176 6.62508C1.88643 6.6881 1.8711 6.75963 1.85577 6.8465C1.85237 6.86523 1.84215 6.91122 1.83363 6.94869C1.82511 6.98616 1.81319 7.03556 1.80808 7.0594C1.80468 7.08325 1.78764 7.15989 1.77231 7.22972C1.75698 7.29956 1.74166 7.3762 1.73825 7.40005C1.73314 7.42389 1.72292 7.47329 1.7144 7.51076C1.69907 7.57378 1.68375 7.64531 1.66842 7.73218C1.66501 7.75091 1.65479 7.7969 1.64627 7.83437C1.63776 7.87184 1.62584 7.92124 1.62073 7.94508C1.61732 7.96893 1.60029 8.04557 1.58496 8.11541C1.56963 8.18524 1.5543 8.26189 1.55089 8.28573C1.54578 8.30958 1.53556 8.35727 1.52705 8.39133L1.51172 8.45605H1.99373C2.2901 8.45605 2.48086 8.44924 2.48767 8.43902C2.49278 8.43051 2.5013 8.40155 2.50471 8.376C2.50982 8.34875 2.52003 8.29765 2.52855 8.26018C2.54388 8.19716 2.55921 8.12563 2.57454 8.03876C2.57794 8.02003 2.58816 7.97063 2.59838 7.92975C2.6086 7.88888 2.62053 7.83608 2.62393 7.81053C2.62734 7.78668 2.64437 7.70833 2.6597 7.6385C2.67503 7.56867 2.69036 7.49543 2.69376 7.47669C2.69717 7.45796 2.70739 7.41197 2.71591 7.3745C2.73124 7.31148 2.74656 7.23994 2.76189 7.15308C2.7653 7.13434 2.77552 7.08495 2.78574 7.04407C2.79596 7.00319 2.80788 6.95039 2.81129 6.92485C2.81469 6.901 2.83173 6.82265 2.84706 6.75282C2.86239 6.68299 2.87771 6.60975 2.88112 6.59101C2.88453 6.57228 2.89475 6.52629 2.90326 6.48882C2.91178 6.45135 2.9237 6.40195 2.92881 6.37811C2.93222 6.35426 2.94925 6.27762 2.96458 6.20778C2.97991 6.13795 2.99524 6.0613 2.99864 6.03746C3.00375 6.01361 3.01397 5.96422 3.02249 5.92675C3.03782 5.86373 3.05315 5.79219 3.06848 5.70533C3.07188 5.68659 3.0821 5.6372 3.09232 5.59632C3.10254 5.55544 3.11446 5.50264 3.11787 5.47709C3.12128 5.45325 3.13831 5.3749 3.15364 5.30507C3.16897 5.23523 3.1843 5.162 3.1877 5.14326C3.19111 5.12452 3.20133 5.07854 3.20985 5.04107C3.22517 4.97805 3.2405 4.90651 3.25583 4.81965C3.25924 4.80091 3.26946 4.75152 3.27968 4.71064C3.2899 4.66976 3.30182 4.61696 3.30523 4.59141C3.30863 4.56757 3.32567 4.48922 3.34099 4.41938C3.35632 4.34955 3.37165 4.27631 3.37506 4.25758C3.37847 4.23884 3.38868 4.19285 3.3972 4.15538C3.41253 4.09236 3.42786 4.02083 3.44319 3.93396C3.44659 3.91523 3.45681 3.86754 3.46703 3.82666C3.49258 3.72106 3.5028 3.61886 3.48918 3.62057C3.48066 3.62057 3.36484 3.64441 3.22858 3.67166Z" fill="#159640"/>
<path d="M26.037 4.98677C26.0319 4.99188 25.991 5.00039 25.945 5.0055C25.9007 5.01232 25.8309 5.02935 25.7917 5.04298C25.7543 5.0566 25.71 5.07193 25.6946 5.07534C25.6674 5.08045 25.5754 5.12473 25.492 5.17072C25.2756 5.28994 25.073 5.5318 24.9997 5.75322C24.9657 5.85712 24.9588 5.88608 24.9384 6.03767C24.9214 6.16881 24.9708 6.41067 25.044 6.55375C25.0832 6.62869 25.2416 6.80412 25.3455 6.88588C25.3829 6.91653 25.6572 7.06131 25.6844 7.06642C25.6946 7.06812 25.744 7.08856 25.79 7.109C25.8377 7.13114 25.9365 7.17713 26.0114 7.2129C26.175 7.28784 26.2703 7.38492 26.2788 7.48371C26.2925 7.64041 26.2278 7.76815 26.1051 7.82095C26.02 7.86013 26.008 7.86183 25.8599 7.86013C25.6606 7.85842 25.5209 7.78348 25.4306 7.62678C25.3744 7.53481 25.354 7.45987 25.354 7.36278C25.354 7.28443 25.354 7.28443 25.2995 7.29125C25.2688 7.29465 25.2262 7.30147 25.2024 7.30658C25.0917 7.33042 25.0713 7.33383 25.0236 7.34064C24.9963 7.34575 24.9537 7.35256 24.9299 7.35767C24.906 7.36278 24.8686 7.3713 24.8447 7.37641C24.8209 7.38152 24.7749 7.38833 24.7425 7.39344C24.7102 7.39685 24.6608 7.40707 24.6318 7.41388C24.5824 7.42751 24.5807 7.43262 24.5824 7.52118C24.5875 7.88738 24.8038 8.23143 25.136 8.40516C25.2109 8.44434 25.2705 8.46989 25.2705 8.46478C25.2705 8.45967 25.2876 8.46478 25.3097 8.475C25.3438 8.49373 25.3915 8.50736 25.526 8.53461C25.6538 8.56016 25.8718 8.57549 25.9689 8.56697C26.0302 8.56016 26.1136 8.55334 26.1562 8.54824C26.2448 8.53972 26.393 8.49884 26.4798 8.45967C26.5122 8.44604 26.5446 8.43241 26.5497 8.43241C26.5752 8.42901 26.6842 8.36258 26.6842 8.35066C26.6842 8.34214 26.6961 8.33703 26.7098 8.33703C26.7506 8.33703 26.9976 8.07985 27.0572 7.97424C27.0879 7.91974 27.1151 7.86694 27.1168 7.85502C27.1288 7.79711 27.1509 7.73068 27.1611 7.71535C27.1935 7.66937 27.1986 7.34745 27.1679 7.2146C27.1441 7.11241 27.0828 6.97274 27.0555 6.96082C27.047 6.95741 27.0419 6.94379 27.0419 6.93016C27.0419 6.91653 27.0351 6.90632 27.0249 6.90632C27.0164 6.90632 27.0078 6.8961 27.0078 6.88247C27.0078 6.85181 26.8017 6.65935 26.7302 6.62358C26.7013 6.60825 26.6723 6.58951 26.6672 6.5827C26.6502 6.55886 25.9944 6.25909 25.9586 6.25909C25.9518 6.25909 25.9246 6.23524 25.8973 6.20799C25.7491 6.05299 25.7934 5.82135 25.991 5.71916C26.037 5.69531 26.2516 5.66466 26.2959 5.67488C26.3078 5.67658 26.3419 5.6851 26.3691 5.6902C26.5411 5.72938 26.6825 5.91674 26.6842 6.10409C26.6842 6.15519 26.6876 6.1603 26.7234 6.15008C26.7438 6.14327 26.7847 6.13475 26.812 6.13134C26.8409 6.12623 26.8818 6.11942 26.9056 6.11431C27.0164 6.09047 27.0368 6.08706 27.0845 6.08025C27.1134 6.07514 27.1543 6.06832 27.1782 6.06321C27.202 6.0581 27.2395 6.04959 27.2633 6.04448C27.2872 6.03937 27.3332 6.03256 27.3655 6.02745C27.4881 6.01041 27.4898 6.01041 27.4779 5.90311C27.4728 5.85031 27.4626 5.78388 27.4541 5.75663C27.4251 5.66466 27.3383 5.48411 27.3093 5.46027C27.294 5.44835 27.2804 5.42791 27.2804 5.41769C27.2804 5.38022 27.0657 5.19456 26.9567 5.13836C26.8988 5.1077 26.7915 5.06682 26.72 5.04808C26.6485 5.02935 26.5752 5.01061 26.5565 5.0055C26.5105 4.99188 26.0472 4.97655 26.037 4.98677Z" fill="#159640"/>
<path d="M5.11541 5.00657C5.11201 5.01168 5.07454 5.01849 5.03366 5.0236C4.99278 5.02871 4.92635 5.04745 4.88548 5.06618C4.8446 5.08322 4.81224 5.09514 4.81224 5.09003C4.81224 5.06448 4.59082 5.20415 4.50906 5.2825C4.45626 5.33189 4.40857 5.37277 4.40346 5.37277C4.39835 5.37277 4.39835 5.30804 4.40005 5.22799C4.40516 5.11217 4.40176 5.08492 4.38302 5.09173C4.35747 5.10025 4.28423 5.11558 4.20759 5.1258C4.18034 5.13091 4.13776 5.13772 4.11391 5.14283C4.0032 5.16668 3.98276 5.17008 3.93507 5.17689C3.90782 5.182 3.86524 5.18882 3.84139 5.19393C3.81755 5.19904 3.78008 5.20755 3.75623 5.21266C3.73239 5.21777 3.69832 5.22288 3.67959 5.22629C3.50245 5.25354 3.50075 5.25354 3.50075 5.30975C3.50075 5.35573 3.48371 5.46304 3.44113 5.68787C3.43602 5.7066 3.4258 5.75259 3.41729 5.79006C3.40196 5.85308 3.38663 5.92462 3.3713 6.01148C3.36789 6.03022 3.35767 6.0762 3.34916 6.11367C3.33383 6.17669 3.3185 6.24823 3.30317 6.3351C3.29976 6.35383 3.28954 6.39982 3.28103 6.43729C3.2657 6.50031 3.25037 6.57184 3.23504 6.65871C3.23163 6.67745 3.22141 6.72343 3.2129 6.7609C3.19757 6.82392 3.18224 6.89546 3.16691 6.98232C3.1635 7.00106 3.15329 7.04705 3.14477 7.08452C3.12944 7.14754 3.11411 7.21907 3.09878 7.30594C3.09538 7.32468 3.08516 7.37066 3.07664 7.40813C3.06131 7.47115 3.04598 7.54269 3.03065 7.62955C3.02725 7.64829 3.01703 7.69428 3.00851 7.73175C2.99318 7.79477 2.97785 7.8663 2.96252 7.95317C2.95912 7.9719 2.9489 8.01789 2.94038 8.05536C2.92505 8.11838 2.90972 8.18992 2.89439 8.27678C2.89099 8.29552 2.88077 8.34151 2.87225 8.37898C2.86203 8.41645 2.85352 8.45222 2.85352 8.45903C2.85352 8.46755 3.05961 8.47266 3.31169 8.47266H3.76986L3.78348 8.41645C3.7903 8.38749 3.79711 8.35002 3.79881 8.3364C3.80051 8.32277 3.80903 8.28871 3.81584 8.26145C3.82266 8.2342 3.83117 8.20014 3.83288 8.18481C3.83458 8.16948 3.83969 8.13882 3.8465 8.11498C3.87716 7.99234 3.91293 7.83565 3.91634 7.80328C3.91804 7.78285 3.92485 7.74708 3.93166 7.72323C3.96232 7.5989 3.99809 7.4405 4.0015 7.40984C4.0049 7.3894 4.01172 7.35533 4.01683 7.33149C4.02194 7.30764 4.03897 7.23781 4.0543 7.17309C4.06963 7.11007 4.08496 7.03853 4.08836 7.01128C4.09177 6.98573 4.09858 6.95337 4.10369 6.93974C4.1088 6.92612 4.11561 6.89546 4.12072 6.87161C4.12413 6.84777 4.13605 6.78986 4.14798 6.74387C4.15819 6.69618 4.17012 6.63997 4.17352 6.61613C4.17693 6.59228 4.19226 6.53267 4.20589 6.48328C4.21951 6.43559 4.22803 6.39471 4.22462 6.39471C4.22121 6.39471 4.24165 6.34872 4.2689 6.29251C4.29616 6.23631 4.3183 6.18351 4.3183 6.17499C4.3183 6.13071 4.53461 5.92121 4.62318 5.88033C4.72708 5.83264 4.76625 5.82412 4.90592 5.82412C5.06602 5.82412 5.12052 5.83775 5.20739 5.89736C5.31129 5.9689 5.33343 5.99785 5.37431 6.12219C5.42029 6.25845 5.41518 6.41344 5.35727 6.65019C5.34705 6.69277 5.33513 6.74558 5.33172 6.76942C5.32661 6.79327 5.3164 6.84607 5.30618 6.88865C5.29596 6.93123 5.28403 6.98403 5.28063 7.00787C5.27552 7.03172 5.2653 7.08452 5.25508 7.1254C5.24486 7.16627 5.23294 7.21907 5.22953 7.24462C5.22612 7.26847 5.2142 7.32297 5.20398 7.36385C5.19376 7.40473 5.18184 7.45753 5.17843 7.48308C5.17503 7.50692 5.16481 7.55802 5.15459 7.59549C5.14607 7.63296 5.13415 7.68235 5.12904 7.7062C5.12563 7.73005 5.11371 7.78285 5.10349 7.82543C5.08816 7.89356 5.07624 7.95147 5.0575 8.05536C5.0541 8.0741 5.04217 8.1269 5.03195 8.17459C5.02174 8.22058 5.01152 8.27167 5.00811 8.2853C5.0047 8.31085 4.98597 8.3892 4.97064 8.442C4.96383 8.47095 4.99278 8.47266 5.4237 8.47266C5.686 8.47266 5.88698 8.46584 5.89379 8.45733C5.8989 8.44881 5.90571 8.41986 5.91082 8.3926C5.91423 8.36706 5.92615 8.31085 5.93637 8.26997C5.94659 8.22909 5.95852 8.17629 5.96192 8.15074C5.96533 8.1269 5.97725 8.0724 5.98747 8.03152C5.99769 7.99064 6.00961 7.93784 6.01302 7.91229C6.01643 7.88845 6.02835 7.83394 6.03857 7.79136C6.04879 7.74878 6.06071 7.69598 6.06412 7.67214C6.06923 7.64829 6.07945 7.59549 6.08966 7.55291C6.09988 7.51033 6.11181 7.45753 6.11692 7.43368C6.12032 7.40984 6.13225 7.35193 6.14246 7.30594C6.15268 7.25825 6.16461 7.20545 6.16801 7.18671C6.17142 7.16798 6.18334 7.11347 6.19356 7.06749C6.20378 7.0198 6.214 6.9704 6.21741 6.95678C6.21911 6.94315 6.22592 6.91249 6.23103 6.88865C6.26339 6.74898 6.29405 6.61954 6.30087 6.58206C6.30427 6.55822 6.3162 6.50372 6.32641 6.45943C6.38262 6.21417 6.38432 5.88033 6.32982 5.7049C6.21911 5.34211 5.95681 5.09514 5.60424 5.0202C5.54463 5.00657 5.12734 4.99635 5.11541 5.00657Z" fill="#159640"/>
<path d="M12.956 5.0034C12.9509 5.00851 12.9169 5.01703 12.8794 5.02214C12.8419 5.02895 12.7959 5.03577 12.7772 5.03917C12.6205 5.06642 12.4076 5.1601 12.2305 5.28103C12.0601 5.39515 11.8319 5.6336 11.7314 5.79882C11.6701 5.89931 11.544 6.16501 11.5355 6.2093C11.5304 6.23144 11.527 6.25188 11.5236 6.25358C11.5219 6.25699 11.5185 6.2655 11.5168 6.27572C11.5151 6.28424 11.5117 6.29446 11.5083 6.29616C11.5049 6.30127 11.4674 6.45456 11.447 6.54824C11.4419 6.57208 11.4333 6.62148 11.4265 6.65895C11.4112 6.75092 11.4129 7.26871 11.4299 7.37431C11.4572 7.55655 11.619 7.96192 11.6633 7.96192C11.6718 7.96192 11.6786 7.97385 11.6786 7.98747C11.6786 8.0028 11.7467 8.08285 11.8302 8.16631C11.9579 8.29235 12.0073 8.32982 12.1419 8.39455C12.2305 8.43713 12.319 8.4729 12.3412 8.4729C12.3616 8.4729 12.3957 8.48141 12.4161 8.49333C12.4979 8.53592 12.9884 8.52399 13.0667 8.4763C13.077 8.46949 13.094 8.46438 13.1076 8.46097C13.1894 8.44905 13.3682 8.33323 13.484 8.21741L13.6135 8.08967L13.6118 8.27702V8.46438L14.0444 8.46949L14.477 8.4729L14.4651 8.40817C14.4532 8.32642 14.4855 7.87847 14.5145 7.75754C14.5196 7.73369 14.5281 7.69622 14.5315 7.67237C14.5349 7.64853 14.5469 7.59914 14.5554 7.56166C14.5707 7.49864 14.586 7.42711 14.6014 7.34024C14.6048 7.32151 14.615 7.27211 14.6252 7.23124C14.6354 7.19036 14.6473 7.13756 14.6507 7.11201C14.6542 7.08816 14.6695 7.01322 14.6848 6.9485C14.7001 6.88207 14.7155 6.81054 14.7189 6.78669C14.724 6.76285 14.7393 6.6862 14.7546 6.61637C14.77 6.54654 14.7853 6.4733 14.7887 6.45456C14.7921 6.43583 14.8074 6.36259 14.8228 6.29275C14.8381 6.22292 14.8534 6.14968 14.8568 6.13095C14.8602 6.11221 14.8705 6.06622 14.879 6.02875C14.8943 5.96573 14.9096 5.8942 14.925 5.80733C14.9284 5.7886 14.9386 5.74261 14.9471 5.70514C14.9624 5.64212 14.9778 5.57058 14.9931 5.48372C14.9965 5.46498 15.0067 5.41899 15.0152 5.38152C15.034 5.30488 15.0527 5.2129 15.0595 5.1567C15.0629 5.13626 15.0697 5.11241 15.0749 5.10219C15.0851 5.08686 15.0255 5.08857 14.9318 5.109C14.8211 5.13285 14.8006 5.13626 14.7529 5.14307C14.7257 5.14818 14.6831 5.15499 14.6593 5.1601C14.5486 5.18395 14.5281 5.18735 14.4804 5.19417C14.4532 5.19928 14.4106 5.20609 14.3867 5.2112C14.276 5.23504 14.2556 5.23845 14.2096 5.24526C14.1449 5.25548 14.1347 5.26741 14.1262 5.34405C14.1193 5.40366 14.0802 5.4769 14.0802 5.42921C14.0802 5.39004 13.8996 5.20268 13.8639 5.20268C13.8519 5.20268 13.8417 5.19587 13.8417 5.18565C13.8417 5.17713 13.823 5.16521 13.7991 5.1584C13.7753 5.15329 13.7566 5.13966 13.7566 5.12944C13.7566 5.11922 13.7514 5.11752 13.7446 5.12263C13.7395 5.12944 13.7259 5.12774 13.7157 5.11922C13.6935 5.10219 13.5436 5.04939 13.4925 5.04088C13.4738 5.03747 13.4397 5.03066 13.4159 5.02384C13.3597 5.01022 12.9662 4.99148 12.956 5.0034ZM13.2626 5.83458C13.3239 5.83799 13.3818 5.8448 13.3904 5.85162C13.4006 5.85673 13.438 5.87205 13.4755 5.88398C13.513 5.8959 13.5505 5.91464 13.5607 5.92485C13.5726 5.93507 13.6067 5.96744 13.639 5.99469C13.7566 6.10029 13.8264 6.29446 13.8332 6.53461C13.8434 6.90933 13.7208 7.2636 13.5045 7.48332C13.4415 7.54634 13.3733 7.60425 13.3529 7.61106C13.3307 7.61787 13.3137 7.6315 13.3137 7.64001C13.3137 7.64853 13.3035 7.65534 13.2916 7.65534C13.2779 7.65534 13.2439 7.66726 13.2149 7.68089C13.0736 7.75243 12.8283 7.7388 12.6597 7.65194C12.5115 7.57699 12.4195 7.45777 12.3599 7.267C12.3241 7.15118 12.3122 6.84631 12.3412 6.73219C12.3497 6.69812 12.3531 6.66576 12.348 6.66236C12.3446 6.65725 12.3565 6.61637 12.3752 6.56697C12.3957 6.51928 12.4076 6.48011 12.4025 6.48011C12.3974 6.48011 12.4263 6.41709 12.4655 6.33874C12.5949 6.09007 12.8589 5.86524 13.0531 5.83969C13.0872 5.83629 13.1195 5.82947 13.1229 5.82436C13.1281 5.82096 13.1366 5.81925 13.1417 5.82266C13.1468 5.82607 13.2013 5.83118 13.2626 5.83458Z" fill="#159640"/>
<path d="M11.3508 5.10289C11.2469 5.12674 11.1924 5.13696 11.1379 5.14377C11.1106 5.14888 11.0289 5.16421 10.959 5.17784C10.8892 5.19146 10.8057 5.20679 10.7734 5.2119C10.741 5.21701 10.7001 5.22553 10.6831 5.23064C10.6661 5.23575 10.6286 5.24256 10.5997 5.24767C10.5315 5.25619 10.5213 5.2664 10.5111 5.33964C10.506 5.37201 10.4958 5.42992 10.4855 5.46739C10.4702 5.5287 10.46 5.57639 10.4396 5.68881C10.4361 5.70754 10.4242 5.76034 10.414 5.80803C10.4038 5.85402 10.3919 5.90852 10.3885 5.92726C10.3851 5.946 10.3748 5.99539 10.3646 6.03797C10.3544 6.08055 10.3425 6.13335 10.3391 6.1572C10.334 6.18104 10.3237 6.23384 10.3135 6.27472C10.3033 6.3156 10.2914 6.3684 10.288 6.39395C10.2846 6.41779 10.2743 6.46889 10.2641 6.50636C10.2556 6.54383 10.2437 6.59323 10.2386 6.61707C10.2335 6.64092 10.2181 6.72097 10.2028 6.79591C10.1858 6.87085 10.1704 6.9475 10.167 6.96623C10.1636 6.98497 10.1534 7.03436 10.1432 7.07694C10.133 7.11953 10.121 7.17233 10.1176 7.19617C10.1125 7.22002 10.1023 7.27282 10.0921 7.31369C10.0819 7.35457 10.07 7.40737 10.0665 7.43292C10.0631 7.45677 10.0529 7.50786 10.0427 7.54533C10.0342 7.58281 10.0223 7.6322 10.0172 7.65604C10.0137 7.67989 10.0018 7.73269 9.9916 7.77527C9.97627 7.8434 9.96435 7.90131 9.94562 8.00521C9.94221 8.02394 9.93029 8.07674 9.92007 8.12443C9.90985 8.17042 9.89792 8.22493 9.89452 8.24366C9.89111 8.2624 9.88089 8.30838 9.87238 8.34586C9.83661 8.48552 9.79743 8.4753 10.3084 8.47019L10.7632 8.46508L10.7768 8.41398C10.7836 8.38673 10.7921 8.34415 10.7972 8.32031C10.8006 8.29646 10.8126 8.24366 10.8228 8.20108C10.8381 8.13295 10.85 8.07674 10.8688 7.97114C10.8722 7.95241 10.8841 7.8979 10.8943 7.85192C10.9045 7.80423 10.9165 7.75143 10.9199 7.73269C10.9233 7.71395 10.9335 7.66456 10.9437 7.62198C10.9539 7.5794 10.9659 7.5266 10.9693 7.50275C10.9744 7.47891 10.9846 7.42611 10.9948 7.38353C11.005 7.34095 11.017 7.28815 11.0204 7.2643C11.0255 7.24046 11.0357 7.18765 11.0459 7.14678C11.0561 7.1059 11.068 7.0531 11.0715 7.02755C11.0749 7.00371 11.0851 6.95261 11.0953 6.91514C11.1038 6.87767 11.1157 6.82827 11.1208 6.80443C11.1243 6.78058 11.1362 6.72778 11.1464 6.6852C11.1617 6.61707 11.1736 6.55916 11.1924 6.45526C11.1958 6.43653 11.2077 6.38202 11.2179 6.33604C11.2282 6.28835 11.2401 6.23555 11.2435 6.21681C11.2469 6.19808 11.2571 6.14868 11.2673 6.1061C11.2775 6.06352 11.2895 6.01072 11.2929 5.98687C11.298 5.96303 11.3082 5.91023 11.3184 5.86935C11.3286 5.82847 11.3406 5.77567 11.344 5.75012C11.3474 5.72628 11.3593 5.67178 11.3695 5.6309C11.3797 5.59002 11.3917 5.53722 11.3951 5.51167C11.3985 5.48783 11.4087 5.43673 11.4189 5.39926C11.4274 5.36179 11.4394 5.31239 11.4428 5.28855C11.4513 5.24256 11.47 5.1591 11.4819 5.11652C11.4905 5.08416 11.4513 5.08075 11.3508 5.10289Z" fill="#159640"/>
<path d="M19.933 5.09722C19.9296 5.10063 19.9007 5.10574 19.87 5.10914C19.8376 5.11425 19.7933 5.12107 19.7695 5.12617C19.6588 5.15002 19.6384 5.15343 19.5907 5.16024C19.5634 5.16535 19.5208 5.17216 19.497 5.17727C19.4731 5.18238 19.4357 5.1909 19.4118 5.19601C19.388 5.20112 19.3539 5.20623 19.3352 5.20963C19.2977 5.21474 19.1563 5.24199 19.1359 5.2471C19.1274 5.24881 19.1121 5.25051 19.0984 5.25221C19.0848 5.25392 19.0695 5.28628 19.061 5.33397C19.0541 5.37996 19.0456 5.42765 19.0439 5.44127C19.0405 5.4549 19.0303 5.50089 19.0201 5.54347C19.0099 5.58605 18.9979 5.63885 18.9945 5.66269C18.9894 5.68654 18.9792 5.73934 18.969 5.78192C18.9588 5.8245 18.9468 5.8773 18.9434 5.90115C18.9383 5.92499 18.9281 5.97779 18.9179 6.02037C18.9077 6.06295 18.8957 6.11576 18.8923 6.1396C18.8872 6.16345 18.877 6.21625 18.8668 6.25883C18.8566 6.30141 18.8446 6.35421 18.8412 6.37805C18.8361 6.4019 18.8259 6.4547 18.8157 6.49728C18.8055 6.53986 18.7935 6.59266 18.7901 6.61651C18.7867 6.64035 18.7714 6.70507 18.7578 6.76128C18.7442 6.81749 18.7356 6.86688 18.739 6.87029C18.7442 6.8737 18.739 6.88902 18.7322 6.90435C18.7237 6.91968 18.7118 6.95886 18.7067 6.99122C18.7016 7.02358 18.6931 7.06957 18.6879 7.09341C18.6437 7.29099 18.6437 7.51752 18.6845 7.74064C18.7186 7.91778 18.8225 8.11024 18.9571 8.2465C19.0524 8.34188 19.2142 8.44749 19.2892 8.46452C19.3045 8.46792 19.3522 8.48496 19.3948 8.50029C19.5089 8.54287 19.8649 8.55309 20.008 8.51732C20.1817 8.47303 20.3537 8.38106 20.4763 8.26694L20.5871 8.16304L20.5888 8.29249C20.5905 8.36403 20.5922 8.43216 20.5939 8.44238C20.5956 8.45941 20.6961 8.46452 21.0384 8.46452H21.4813L21.4915 8.26013C21.4966 8.14772 21.5068 8.0319 21.5119 8.00464C21.5187 7.97569 21.5272 7.9263 21.5324 7.89393C21.5358 7.86157 21.5511 7.78152 21.5664 7.7185C21.5903 7.60949 21.6056 7.53455 21.6192 7.45961C21.6226 7.44087 21.6328 7.39489 21.6414 7.35741C21.6499 7.31994 21.6635 7.26203 21.6703 7.22967C21.6754 7.19731 21.6839 7.15473 21.6873 7.13599C21.6908 7.11726 21.7061 7.04402 21.7214 6.97419C21.735 6.90435 21.7504 6.83111 21.7538 6.81238C21.7572 6.79364 21.7725 6.72551 21.7861 6.66249C21.8117 6.55349 21.827 6.48195 21.8406 6.4036C21.844 6.38487 21.8543 6.33888 21.8628 6.30141C21.8781 6.24009 21.89 6.17877 21.9088 6.07999C21.9122 6.06125 21.9275 5.99142 21.9411 5.9267C21.9565 5.86027 21.9718 5.78873 21.9752 5.76489C21.9786 5.74104 21.9939 5.66951 22.0076 5.60649C22.0331 5.49748 22.0484 5.42594 22.0621 5.3476C22.0655 5.32886 22.0757 5.28287 22.0842 5.2454C22.1183 5.10403 22.12 5.08359 22.0893 5.08359C22.074 5.08359 22.0297 5.09211 21.9922 5.10063C21.8985 5.12107 21.8304 5.13469 21.7708 5.14321C21.7436 5.14832 21.701 5.15513 21.6771 5.16024C21.5664 5.18408 21.546 5.18749 21.4983 5.1943C21.471 5.19941 21.4285 5.20623 21.4046 5.21134C21.2939 5.23518 21.2735 5.23859 21.2292 5.2454C21.1662 5.25562 21.1491 5.26754 21.1491 5.30501C21.1491 5.32205 21.1372 5.38336 21.1219 5.43957C21.1082 5.49748 21.0946 5.5605 21.0912 5.58264C21.0895 5.60308 21.0827 5.63885 21.0759 5.66269C21.0452 5.78703 21.0129 5.93351 21.0061 5.97779C21.0009 6.00675 20.989 6.06295 20.9788 6.10554C20.9686 6.14812 20.9567 6.20092 20.9533 6.22476C20.9498 6.24861 20.9396 6.29289 20.9294 6.32355C20.9209 6.35421 20.9124 6.38316 20.9124 6.38657C20.9124 6.39168 20.9039 6.43937 20.8919 6.49387C20.88 6.54667 20.8698 6.60288 20.8681 6.61651C20.8664 6.63013 20.8596 6.66079 20.8545 6.68464C20.8051 6.89413 20.7897 6.95715 20.7846 6.99973C20.7557 7.18368 20.6501 7.41362 20.5308 7.54136C20.4201 7.66229 20.3196 7.70828 20.134 7.7185C20.0148 7.72531 19.9586 7.72191 19.8938 7.69976C19.8138 7.67251 19.6673 7.56691 19.6673 7.53625C19.6673 7.52944 19.6537 7.49367 19.6384 7.45791C19.5924 7.3523 19.5856 7.22626 19.6179 7.05253C19.6281 6.99462 19.6401 6.93331 19.6435 6.91457C19.6469 6.89584 19.6571 6.84644 19.6673 6.80386C19.6775 6.76128 19.6895 6.70848 19.6929 6.68464C19.698 6.66079 19.7082 6.60799 19.7184 6.56541C19.7286 6.52283 19.7405 6.47003 19.744 6.44618C19.7491 6.42234 19.7593 6.36954 19.7695 6.32696C19.7797 6.28438 19.7916 6.23158 19.7968 6.20773C19.8002 6.18388 19.8121 6.12597 19.8223 6.07999C19.8325 6.0323 19.8444 5.9795 19.8479 5.96076C19.8513 5.94202 19.8632 5.88752 19.8734 5.84153C19.8836 5.79384 19.8955 5.74104 19.8989 5.72231C19.9024 5.70357 19.9143 5.64907 19.9245 5.60308C19.9347 5.55539 19.9466 5.50259 19.95 5.48385C19.9535 5.46512 19.9654 5.41062 19.9756 5.36463C19.9858 5.31694 19.9977 5.26414 20.0011 5.2454C20.0045 5.22667 20.0131 5.18238 20.0233 5.14661C20.0386 5.08359 20.0386 5.08359 19.9875 5.087C19.9603 5.0887 19.9347 5.09381 19.933 5.09722Z" fill="#159640"/>
</svg>
